<svg xmlns="http://www.w3.org/2000/svg" width="866" height="196" fill="none"><path stroke="#90F" stroke-dasharray="1 8" stroke-linecap="round" stroke-miterlimit="10" stroke-width="4" d="M294 110s-57.986 17.171-120 14m130-22.723s-69.351-26.49-124-20"/><path stroke="#90F" stroke-linecap="round" stroke-miterlimit="10" stroke-width="4" d="M367.667 104s-40 57-20 90M397 2s10.755 59.501-34 94"/><path fill="#FF0" d="M11 59h176v40H11z"/><path fill="#000" d="M12.955 63h-2.768l-.03-.344-.032-2.406 1.062-1.969L15 58.164v2.688l-2.031.023z"/><path fill="#000" d="M14.75 60.853v-2.689L43.966 58H98.32l84.929.768v1.979l-20.215.097-9.512-.375-13.925.312h-37.201L77.769 60.5l-28.879.281z"/><path fill="#000" d="M187.512 63h-2.289l.027-1.5-1.156-.781-1.094.028v-1.979l.281.014 3.531.218z"/><path fill="#000" d="m188 72.48-.5 13.256.428 9.514h-2.619l-.09-5.934-.062-8.392.125-5.398-.126-6.468.067-6.308h2.289l.082.802z"/><path fill="#000" d="m187.928 95 .072.938-.875 3.687-1.344.175-2.781-.329v-2.252h2.156l.156-2.094-.003-.125z"/><path fill="#000" d="M14.75 98.97v-2.134l9.85.148 21.91.078 15.284.062 26.498.219 13.589-.031 16.817-.094h64.552v2.252l-1.527-.033-41.104-.031-23.334.457-65.166-.238-34.988-.641z"/><path fill="#000" d="m12.797 96.656 2.203.18v2.134l-4.75-.158-.031-1.531-.21-2.281h2.554v.583z"/><path fill="#000" d="m12.955 62.75-.08 21.595-.312 8.553v2.352h-2.554L10 95.09v-5.238l.594-8.98.031-9.57-.438-8.552zM80.91 75.145q-.03 1.905 0 3.585a44 44 0 0 0 4.365-4.275q.3-.315.72-.33.435-.015.75.285.33.3.345.735.015.42-.285.75a38 38 0 0 1-3 3.075l3.45 4.44q.27.33.21.765a1 1 0 0 1-.39.705.95.95 0 0 1-.765.21 1 1 0 0 1-.705-.39l-3.375-4.335-1.26 1.035q.045 1.215.105 2.625.015.42-.285.75-.285.315-.72.33a1 1 0 0 1-.75-.255q-.315-.3-.345-.735-.225-4.62-.165-9 .015-.435.315-.735.315-.3.75-.285.435 0 .735.315.3.3.3.735m10.599 3.9q-.255.075-.27.075l-.15.06q-.42.345-.645.96-.21.615-.12 1.275.06.63.375 1.02.33.39.855.495.63.12.96 0 .285-.105.57-.57.285-.48.36-1.2.09-.735-.09-1.215-.165-.48-.42-.585-.195-.09-.36-.12a3 3 0 0 0-.465-.075q-.3-.045-.6-.12m.435-1.98q1.41.225 1.89.435.555.27.93.735.39.465.54.99.165.525.24 1.11.075.57-.015 1.035-.075.72-.33 1.38t-.78 1.26q-.51.6-1.215.84-.855.3-2.04.06-1.305-.255-2.04-1.17a4.1 4.1 0 0 1-.885-2.1 4.85 4.85 0 0 1 .24-2.19q.39-1.095 1.26-1.83.36-.27.885-.435.015 0 .315-.09a1 1 0 0 0 .18-.06 1 1 0 0 1 .825.03m6.11-.315v-.495q.016-.285.016-.36.015-.435.33-.72.315-.3.75-.285.435 0 .72.315.3.315.3.75 0 .06-.015.33 0 .255-.015.45.63.03.9.33.285.3.285.72 0 .405-.3.705-.285.3-.93.33 0 .465-.015.885-.015 1.395.045 2.76h.015-.015q.015.03.06.075.06.03.165.09l.12.06.135.075q.075.03.12.06.285.135.465.27.36.24.45.66t-.15.78-.66.45-.78-.15a6 6 0 0 0-.285-.15l-.42-.225q-.66-.36-1.005-.81a1.2 1.2 0 0 1-.225-.54q-.03-.15-.06-.36-.03-.285-.045-.84-.03-.855-.015-2.22 0-.45.015-.945-.72-.105-.93-.375-.195-.285-.195-.63t.21-.615q.225-.285.96-.375m7.274-1.44v2.91q.015 1.71.015 3.105t-.015 2.67q-.015.435-.33.735a.95.95 0 0 1-.735.285 1 1 0 0 1-.735-.3q-.3-.315-.3-.75.03 0 .015-4.215l-.015-4.44a1 1 0 0 1 .3-.735q.315-.315.75-.315t.735.315q.315.3.315.735m3.708 2.805q-.09 2.805-.045 5.835 0 .435-.3.75a1 1 0 0 1-.735.3 1 1 0 0 1-.75-.285q-.3-.3-.315-.735-.045-3.18.045-5.955.015-.435.33-.72.33-.3.765-.285t.72.345q.3.315.285.75m-.39-3.6q.315.3.315.735t-.315.75a1 1 0 0 1-.735.3q-.435 0-.75-.3-.3-.315-.3-.75a1 1 0 0 1 .3-.735q.315-.315.75-.315t.735.315m4.216 5.025q-.015.045-.045.165 0 .045-.015.09v.12a.3.3 0 0 0-.015.09v.045q0 .465.015 1.83t.015 2.07q0 .435-.315.75a1 1 0 0 1-.735.3q-.435 0-.75-.3-.3-.315-.3-.75 0-.63-.03-2.58-.015-1.95-.12-3.21-.015-.45.165-.66.18-.225.63-.27.78 0 .945.285.885-.555 2.01-.45.93.09 1.695.615t1.065 1.455q.165.51.225 1.29.075.78.06 1.32 0 .525-.045 1.41l-.03.9a.97.97 0 0 1-.315.69q-.3.285-.705.27a.97.97 0 0 1-.69-.315.94.94 0 0 1-.27-.705q0-.165.03-.99.045-.825.045-1.275.015-.45-.03-1.035-.045-.6-.165-.96a.86.86 0 0 0-.36-.465 1.3 1.3 0 0 0-.675-.225q-.42-.045-.78.105-.345.135-.51.39"/><path fill="#D8D8D8" d="M11 107h176v40H11z"/><path fill="#000" d="M12.955 111h-2.768l-.03-.344-.032-2.406 1.062-1.969 3.813-.117v2.688l-2.031.023z"/><path fill="#000" d="M14.75 108.853v-2.689L43.966 106H98.32l84.929.768v1.979l-20.215.097-9.512-.375-13.925.312h-37.201l-24.628-.281-28.879.281z"/><path fill="#000" d="M187.512 111h-2.289l.027-1.5-1.156-.781-1.094.028v-1.979l.281.014 3.531.218z"/><path fill="#000" d="m188 120.479-.5 13.257.428 9.514h-2.619l-.09-5.934-.062-8.392.125-5.398-.126-6.468.067-6.308h2.289l.082.802z"/><path fill="#000" d="m187.928 143 .072.938-.875 3.687-1.344.175-2.781-.329v-2.252h2.156l.156-2.094-.003-.125z"/><path fill="#000" d="M14.75 146.97v-2.134l9.85.148 21.91.078 15.284.062 26.498.219 13.589-.031 16.817-.094h64.552v2.252l-1.527-.033-41.104-.031-23.334.457-65.166-.238-34.988-.641z"/><path fill="#000" d="m12.797 144.656 2.203.18v2.134l-4.75-.158-.031-1.531-.21-2.281h2.554v.583z"/><path fill="#000" d="m12.955 110.75-.08 21.595-.312 8.553v2.352h-2.554l-.009-.161v-5.237l.594-8.981.031-9.568-.438-8.553zm74.26 11.51q2.31-.075 3.765 0 .435.03.72.36.285.315.255.75a.96.96 0 0 1-.345.72q-.315.285-.75.27-.36-.03-.72-.03.09 1.32.12 2.1.03.765-.06 1.83-.09 1.23-.36 2.175-.225.795-.81 1.44-.57.645-1.32.93-.585.21-1.155.21-.555 0-1.125-.315-.57-.33-.99-.93-.255-.375-.405-.96 0-.015-.09-.36a2 2 0 0 0-.06-.255 1 1 0 0 1 .06-.795q.195-.39.6-.525.42-.135.795.06.39.195.525.6a6 6 0 0 1 .15.555l.045.195q.06.24.12.315.3.45.75.27a1.57 1.57 0 0 0 .9-1.005q.18-.63.27-1.275t.075-1.44q-.015-.81-.045-1.245-.015-.45-.09-1.575-.315.015-.75.03-.42.015-.75-.285-.315-.3-.33-.72a1 1 0 0 1 .285-.75 1 1 0 0 1 .72-.345m9.503 7.35q-.045-1.2-.12-2.07l-.15-.105-.21-.165-.135-.09q-.615-.18-1.245.225-.615.405-.975 1.305-.345.87-.195 1.41.15.525.675.705.66.24 1.35-.27.12-.075.21-.165l.24-.27.345-.36a.8.8 0 0 1 .21-.15m1.86-3.21q.06.51.105 1.035t.075 1.2l.045 1.05.045 1.17q.03.795.045 1.035.015.435-.285.765-.3.315-.72.33-.345.015-.63-.165-.27-.195-.39-.51-1.56 1.08-3.195.495-.855-.3-1.38-.885-.51-.6-.645-1.305a5.2 5.2 0 0 1-.045-1.425q.075-.735.345-1.365.285-.63.72-1.185t1.05-.99q.63-.435 1.365-.555.735-.135 1.59.075.345.09.675.315h.075q.435-.06.765.21.345.27.39.705m7.861.195-.315.675-1.065 2.22-.24.525-.255.6q-.18.42-.24.57-.045.135-.24.63l-.24.585q-.165.375-.54.54-.36.15-.75 0a1 1 0 0 1-.585-.72.2.2 0 0 0-.015-.075q-.96-3.165-2.145-5.61a.984.984 0 0 1 .39-1.35q.36-.21.75-.09.39.105.585.48a41 41 0 0 1 1.515 3.57 46 46 0 0 1 1.725-3.615q.21-.345.6-.435.405-.09.75.135.345.21.435.6.105.39-.12.765m5.47 3.015q-.045-1.2-.12-2.07l-.15-.105-.21-.165-.135-.09q-.615-.18-1.245.225-.615.405-.975 1.305-.345.87-.195 1.41.15.525.675.705.66.24 1.35-.27.12-.075.21-.165l.24-.27.345-.36a.8.8 0 0 1 .21-.15m1.86-3.21q.06.51.105 1.035t.075 1.2l.045 1.05.045 1.17q.03.795.045 1.035.015.435-.285.765-.3.315-.72.33-.345.015-.63-.165-.27-.195-.39-.51-1.56 1.08-3.195.495-.855-.3-1.38-.885-.51-.6-.645-1.305a5.2 5.2 0 0 1-.045-1.425q.075-.735.345-1.365.285-.63.72-1.185t1.05-.99q.63-.435 1.365-.555.735-.135 1.59.075.345.09.675.315h.075q.435-.06.765.21.345.27.39.705"/><path fill="#fff" d="M21.071 57.126c0-5.678-4.607-10.285-10.285-10.285C5.107 46.84.5 51.448.5 57.126c0 5.679 4.607 10.286 10.286 10.286S21.07 62.805 21.07 57.126"/><path fill="#90F" d="M17.696 54.957a.84.84 0 0 1-.24.602l-7.273 7.273a.88.88 0 0 1-.616.254.88.88 0 0 1-.603-.254l-4.848-4.849a.84.84 0 0 1-.241-.602.87.87 0 0 1 .241-.616l1.219-1.206a.85.85 0 0 1 .603-.254.85.85 0 0 1 .602.254l3.027 3.027 5.464-5.45a.85.85 0 0 1 .603-.255c.228 0 .442.093.603.254l1.218 1.206a.87.87 0 0 1 .241.616m3.375 2.17c0-5.68-4.607-10.287-10.285-10.287C5.107 46.84.5 51.448.5 57.127s4.607 10.286 10.286 10.286S21.07 62.805 21.07 57.126"/><path fill="#FFE599" d="M283 83h176v44H283z"/><path fill="#000" d="M284.955 87h-2.768l-.03-.344-.032-2.406 1.062-1.969 3.813-.117v2.688l-2.031.023z"/><path fill="#000" d="M286.75 84.853v-2.689L315.966 82h54.355l84.929.768v1.979l-20.215.097-9.512-.375-13.925.312h-37.201l-24.628-.281-28.879.281z"/><path fill="#000" d="M459.512 87h-2.289l.027-1.5-1.156-.781-1.094.028v-1.979l.281.014 3.531.218z"/><path fill="#000" d="m460 97.677-.5 14.888.428 10.685h-2.619l-.09-6.664-.062-9.425.125-6.063-.126-7.263.067-7.085h2.289l.082.901z"/><path fill="#000" d="m459.928 123 .072.938-.875 3.687-1.344.175-2.781-.329v-2.252h2.156l.156-2.094-.003-.125z"/><path fill="#000" d="M286.75 126.97v-2.134l9.849.148 21.911.078 15.284.062 26.498.219 13.589-.031 16.817-.094h64.552v2.252l-1.527-.033-41.104-.031-23.334.457-65.166-.238-34.988-.641z"/><path fill="#000" d="m284.797 124.656 2.203.18v2.134l-4.75-.158-.031-1.531-.21-2.281h2.554v.583z"/><path fill="#000" d="m284.955 86.75-.08 24.253-.312 9.606v2.641h-2.554l-.009-.181v-5.882l.594-10.085.031-10.747-.438-9.605zm30.91 17.746h.015l.705.075q.39.03.675.045t.555 0q.555-.015 1.05-.21.495-.21.735-.495a1 1 0 0 0 .165-.24q.045-.12-.03-.435-.06-.315-.3-.615-.48-.585-1.605-.645-.75-.045-1.95.135-.015 1.005-.015 2.385m-.765-4.38q1.83-.3 2.865-.24 2.04.135 3.09 1.425.81.99.825 2.115t-.705 1.89q-.585.645-1.47 1.005a5.5 5.5 0 0 1-1.8.405q-.3.015-.645 0a18 18 0 0 1-1.38-.12q.03 2.265.03 3.27 0 .435-.315.75a1 1 0 0 1-.735.3q-.435 0-.75-.3-.3-.315-.3-.75t-.03-4.365.015-4.365q.015-.435.33-.72a1.05 1.05 0 0 1 .9-.285q.03 0 .075-.015m10.479 3.81q-.09 2.805-.045 5.835 0 .435-.3.75a1 1 0 0 1-.735.3 1 1 0 0 1-.75-.285q-.3-.3-.315-.735-.045-3.18.045-5.955.015-.435.33-.72.33-.3.765-.285t.72.345q.3.315.285.75m-.39-3.6q.315.3.315.735t-.315.75a1 1 0 0 1-.735.3q-.435 0-.75-.3-.3-.315-.3-.75a1 1 0 0 1 .3-.735q.315-.315.75-.315t.735.315m9.046 8.055q-.045.09-.09.195-.045.09-.09.21t-.09.195q-.24.57-.57.9-.51.525-1.215.735-.69.24-1.35.18t-1.275-.3a4.1 4.1 0 0 1-1.635-1.2 3.37 3.37 0 0 1-.765-1.89q-.06-.885.285-1.8a4.6 4.6 0 0 1 1.005-1.59q.465-.48 1.035-.765.585-.3 1.32-.375t1.485.255q.405.165.855.54.03.03.195.18l.27.225q.345.27.39.69a.95.95 0 0 1-.21.75q-.27.33-.705.39-.42.045-.765-.225-.03-.015-.57-.48-.18-.15-.27-.195-.81-.33-1.5.405-.36.375-.57.885-.195.51-.15.96.03.42.33.795t.795.57q.525.195.885.15.375-.06.6-.285.075-.075.18-.315l.33-.72q.195-.375.6-.495.42-.135.81.06.39.18.51.585.135.405-.06.78m3.974-.405-.6.57a.2.2 0 0 0-.06.045v1.215q-.015.435-.33.735a.95.95 0 0 1-.735.285 1 1 0 0 1-.735-.3q-.3-.315-.3-.75.045-2.7-.15-8.64a1.024 1.024 0 0 1 1.005-1.08q.435-.03.75.27.315.285.345.72.09 2.625.135 4.68 1.17-1.14 2.46-2.52.3-.315.72-.33.435-.015.75.285.33.3.345.735.015.42-.285.75l-1.785 1.83a15.7 15.7 0 0 0 2.07 2.595q.3.3.285.735 0 .435-.315.735a.95.95 0 0 1-.735.285.98.98 0 0 1-.735-.315q-1.245-1.275-2.1-2.535m14.715-.555q-.045-1.2-.12-2.07l-.15-.105-.21-.165-.135-.09q-.615-.18-1.245.225-.615.405-.975 1.305-.345.87-.195 1.41.15.525.675.705.66.24 1.35-.27.12-.075.21-.165l.24-.27.345-.36a.8.8 0 0 1 .21-.15m1.86-3.21q.06.51.105 1.035t.075 1.2l.045 1.05.045 1.17q.03.795.045 1.035.015.435-.285.765-.3.315-.72.33-.345.015-.63-.165-.27-.195-.39-.51-1.56 1.08-3.195.495-.855-.3-1.38-.885-.51-.6-.645-1.305a5.2 5.2 0 0 1-.045-1.425q.075-.735.345-1.365.285-.63.72-1.185t1.05-.99q.63-.435 1.365-.555.735-.135 1.59.075.345.09.675.315h.075q.435-.06.765.21.345.27.39.705m6.744 6.21q-.3-.3-.315-.735-.015-1.53-.06-4.335l-.045-4.215a1 1 0 0 1 .3-.735q.3-.315.735-.315a.95.95 0 0 1 .735.285q.315.3.33.735l.045 3.93.045 3.72q.735 0 2.13-.015 1.41-.015 2.07-.015.435 0 .735.315.315.3.315.735t-.315.75a1 1 0 0 1-.735.3q-.495 0-2.565.015-2.085.015-2.58 0-.51-.015-.825-.42m13.706-3q-.045-1.2-.12-2.07l-.15-.105-.21-.165-.135-.09q-.615-.18-1.245.225-.615.405-.975 1.305-.345.87-.195 1.41.15.525.675.705.66.24 1.35-.27.12-.075.21-.165l.24-.27.345-.36a.8.8 0 0 1 .21-.15m1.86-3.21q.06.51.105 1.035t.075 1.2l.045 1.05.045 1.17q.03.795.045 1.035.015.435-.285.765-.3.315-.72.33-.345.015-.63-.165-.27-.195-.39-.51-1.56 1.08-3.195.495-.855-.3-1.38-.885-.51-.6-.645-1.305a5.2 5.2 0 0 1-.045-1.425q.075-.735.345-1.365.285-.63.72-1.185t1.05-.99q.63-.435 1.365-.555.735-.135 1.59.075.345.09.675.315h.075q.435-.06.765.21.345.27.39.705m4.137 1.14q-.015.045-.045.165 0 .045-.015.09v.12a.3.3 0 0 0-.015.09v.045q0 .465.015 1.83t.015 2.07q0 .435-.315.75a1 1 0 0 1-.735.3q-.435 0-.75-.3-.3-.315-.3-.75 0-.63-.03-2.58-.015-1.95-.12-3.21-.015-.45.165-.66.18-.225.63-.27.78 0 .945.285.885-.555 2.01-.45.93.09 1.695.615t1.065 1.455q.165.51.225 1.29.075.78.06 1.32 0 .525-.045 1.41l-.03.9a.97.97 0 0 1-.315.69q-.3.285-.705.27a.97.97 0 0 1-.69-.315.94.94 0 0 1-.27-.705q0-.165.03-.99.045-.825.045-1.275.015-.45-.03-1.035-.045-.6-.165-.96a.86.86 0 0 0-.36-.465 1.3 1.3 0 0 0-.675-.225q-.42-.045-.78.105-.345.135-.51.39m11.29-.015-.51-.225q-.585-.24-.735-.255-1.005-.105-1.485.585-.495.69-.375 1.77.12 1.02.675 1.455.525.405 1.395-.06a1 1 0 0 0 .105-.06l.105-.075q.045-.03.09-.075l.09-.09a.5.5 0 0 0 .105-.105l.105-.105q.03-.03.105-.12.075-.105.105-.135t.12-.135q.09-.12.12-.165.015-1.305-.015-2.205m1.92-1.515q.105 1.635.105 3.585t-.015 2.385q0 .435-.06.765a5.3 5.3 0 0 1-1.335 2.445q-.405.405-.855.63-.435.24-1.02.285-.57.06-1.32-.105-.825-.3-1.575-1.02-.405-.3-.48-.795-.06-.495.27-.87.345-.375.81-.285.48.09.675.375.3.405.51.555.225.15.3.18.735.21 1.26-.33.54-.555.78-1.305l-.075.03q-.99.525-1.89.48a2.8 2.8 0 0 1-1.635-.585 3.3 3.3 0 0 1-.99-1.23q-.36-.75-.45-1.575-.21-1.83.72-3.15.54-.75 1.38-1.125.84-.39 1.905-.285.435.045 1.23.375.27-.33.705-.375.405-.015.705.255.315.27.345.69m3.899.165-.105.78q-.075.54-.105.825-.03.27-.075.825-.03.555.015.795.06.735.285 1.11.24.375.72.495a.71.71 0 0 0 .615-.105q.3-.21.915-.915.09-.09.18-.15.015-1.995-.015-3.72a1 1 0 0 1 .3-.735q.3-.315.735-.315a.95.95 0 0 1 .735.285q.315.3.33.735.03 2.205 0 5.76 0 .42-.315.735-.315.3-.75.3a1 1 0 0 1-.84-.45q-1.125.825-2.4.495-.66-.18-1.14-.54t-.75-.84a4.7 4.7 0 0 1-.405-.975q-.135-.48-.18-1.035-.045-.3 0-.975.045-.69.075-1.005.03-.33.105-.9.075-.585.09-.72.06-.405.375-.66a.93.93 0 0 1 .735-.195q.405.045.66.375.255.315.21.72m11.245 3.435q-.045-1.2-.12-2.07l-.15-.105-.21-.165-.135-.09q-.615-.18-1.245.225-.615.405-.975 1.305-.345.87-.195 1.41.15.525.675.705.66.24 1.35-.27.12-.075.21-.165l.24-.27.345-.36a.8.8 0 0 1 .21-.15m1.86-3.21q.06.51.105 1.035t.075 1.2l.045 1.05.045 1.17q.03.795.045 1.035.015.435-.285.765-.3.315-.72.33-.345.015-.63-.165-.27-.195-.39-.51-1.56 1.08-3.195.495-.855-.3-1.38-.885-.51-.6-.645-1.305a5.2 5.2 0 0 1-.045-1.425q.075-.735.345-1.365.285-.63.72-1.185t1.05-.99q.63-.435 1.365-.555.735-.135 1.59.075.345.09.675.315h.075q.435-.06.765.21.345.27.39.705m6.403 1.125-.51-.225q-.585-.24-.735-.255-1.005-.105-1.485.585-.495.69-.375 1.77.12 1.02.675 1.455.525.405 1.395-.06a1 1 0 0 0 .105-.06l.105-.075q.045-.03.09-.075l.09-.09a.5.5 0 0 0 .105-.105l.105-.105q.03-.03.105-.12.075-.105.105-.135t.12-.135q.09-.12.12-.165.015-1.305-.015-2.205m1.92-1.515q.105 1.635.105 3.585t-.015 2.385q0 .435-.06.765a5.3 5.3 0 0 1-1.335 2.445q-.405.405-.855.63-.435.24-1.02.285-.57.06-1.32-.105-.825-.3-1.575-1.02-.405-.3-.48-.795-.06-.495.27-.87.345-.375.81-.285.48.09.675.375.3.405.51.555.225.15.3.18.735.21 1.26-.33.54-.555.78-1.305l-.075.03q-.99.525-1.89.48a2.8 2.8 0 0 1-1.635-.585 3.3 3.3 0 0 1-.99-1.23q-.36-.75-.45-1.575-.21-1.83.72-3.15.54-.75 1.38-1.125.84-.39 1.905-.285.435.045 1.23.375.27-.33.705-.375.405-.015.705.255.315.27.345.69m6.762 2.205q-.015-.24-.21-.6-.18-.375-.81-.69-.735-.345-1.605.06-.825.39-.915 1.305l1.095.03q.57.015 1.395.015.825-.015 1.05-.12m1.5 3.315q-.06.225-.345.57-.3.285-.615.48t-1.005.345q-1.05.135-1.845.03-.78-.12-1.41-.495a4 4 0 0 1-1.095-1.005q-.465-.645-.75-1.86-.12-.705.03-1.305.66-3.18 3.78-3.24 2.865.015 3.585 3.105.165.645-.105 1.05-.33.51-1.155.57-.39.045-1.17.075-.765.015-2.925-.135.15 1.38 1.74 1.605.93.06 1.29-.285.57-.585.96-.6.39-.03.645.165.27.18.375.435.105.24.015.495"/><path fill="#fff" d="M535 67h330v76H535z"/><path fill="#000" d="M536.955 71h-2.768l-.03-.344-.032-2.406 1.062-1.969 3.813-.117v2.688l-2.031.023z"/><path fill="#000" d="M538.75 68.853v-2.689L594.667 66H698.7l162.55.768v1.979l-38.69.097-18.205-.375-26.653.312h-71.2l-47.137-.281-55.272.281z"/><path fill="#000" d="M865.512 71h-2.289l.027-1.5-1.156-.781-1.094.028v-1.979l.281.014 3.531.218z"/><path fill="#000" d="m866 91.257-.5 27.941.428 20.052h-2.619l-.09-12.507-.062-17.687.125-11.378-.126-13.632.067-13.296h2.289l.082 1.69z"/><path fill="#000" d="m865.928 139 .072.938-.875 3.687-1.344.175-2.781-.329v-2.252h2.156l.156-2.094-.003-.125z"/><path fill="#000" d="M538.75 142.97v-2.134l18.851.148 41.935.078 29.254.062 50.716.219 26.008-.031 32.187-.094H861.25v2.252l-2.923-.033-78.67-.031-44.661.457-124.724-.238-66.965-.641z"/><path fill="#000" d="m536.797 140.656 2.203.18v2.134l-4.75-.158-.031-1.531-.21-2.281h2.554v.583z"/><path fill="#000" d="m536.955 70.75-.08 45.516-.312 18.027v4.957h-2.554l-.009-.339v-11.039l.594-18.928.031-20.168-.438-18.026zm19.955 15.206q-.03 1.905 0 3.585a44 44 0 0 0 4.365-4.275q.3-.315.72-.33.435-.015.75.285.33.3.345.735.015.42-.285.75a38 38 0 0 1-3 3.075l3.45 4.44q.27.33.21.765a1 1 0 0 1-.39.705.95.95 0 0 1-.765.21 1 1 0 0 1-.705-.39l-3.375-4.335-1.26 1.035q.045 1.215.105 2.625.015.42-.285.75-.285.315-.72.33a1 1 0 0 1-.75-.255q-.315-.3-.345-.735-.225-4.62-.165-9 .015-.435.315-.735.315-.3.75-.285.435 0 .735.315.3.3.3.735m10.599 3.9q-.255.075-.27.075l-.15.06q-.42.345-.645.96-.21.615-.12 1.275.06.63.375 1.02.33.39.855.495.63.12.96 0 .285-.105.57-.57.285-.48.36-1.2.09-.735-.09-1.215-.165-.48-.42-.585-.195-.09-.36-.12a3 3 0 0 0-.465-.075q-.3-.045-.6-.12m.435-1.98q1.41.225 1.89.435.555.27.93.735.39.465.54.99.165.525.24 1.11.075.57-.015 1.035-.075.72-.33 1.38t-.78 1.26q-.51.6-1.215.84-.855.3-2.04.06-1.305-.255-2.04-1.17a4.1 4.1 0 0 1-.885-2.1 4.85 4.85 0 0 1 .24-2.19q.39-1.095 1.26-1.83.36-.27.885-.435.015 0 .315-.09a1 1 0 0 0 .18-.06 1 1 0 0 1 .825.03m6.111-.315v-.495q.015-.285.015-.36.015-.435.33-.72.315-.3.75-.285.435 0 .72.315.3.315.3.75 0 .06-.015.33 0 .255-.015.45.63.03.9.33.285.3.285.72 0 .405-.3.705-.285.3-.93.33 0 .465-.015.885-.015 1.395.045 2.76h.015-.015q.015.03.06.075.06.03.165.09l.12.06.135.075q.075.03.12.06.285.135.465.27.36.24.45.66t-.15.78-.66.45-.78-.15q-.105-.06-.285-.15l-.42-.225q-.66-.36-1.005-.81a1.2 1.2 0 0 1-.225-.54q-.03-.15-.06-.36-.03-.285-.045-.84-.03-.855-.015-2.22 0-.45.015-.945-.72-.105-.93-.375-.195-.285-.195-.63t.21-.615q.225-.285.96-.375m7.273-1.44v2.91q.015 1.71.015 3.105t-.015 2.67q-.015.435-.33.735a.95.95 0 0 1-.735.285 1 1 0 0 1-.735-.3q-.3-.315-.3-.75.03 0 .015-4.215l-.015-4.44a1 1 0 0 1 .3-.735q.315-.315.75-.315t.735.315q.315.3.315.735m3.708 2.805q-.09 2.805-.045 5.835 0 .435-.3.75a1 1 0 0 1-.735.3 1 1 0 0 1-.75-.285q-.3-.3-.315-.735-.045-3.18.045-5.955.015-.435.33-.72.33-.3.765-.285t.72.345q.3.315.285.75m-.39-3.6q.315.3.315.735t-.315.75a1 1 0 0 1-.735.3q-.435 0-.75-.3-.3-.315-.3-.75a1 1 0 0 1 .3-.735q.315-.315.75-.315t.735.315m4.216 5.025q-.015.045-.045.165 0 .045-.015.09v.12a.3.3 0 0 0-.015.09v.045q0 .465.015 1.83t.015 2.07q0 .435-.315.75a1 1 0 0 1-.735.3q-.435 0-.75-.3-.3-.315-.3-.75 0-.63-.03-2.58-.015-1.95-.12-3.21-.015-.45.165-.66.18-.225.63-.27.78 0 .945.285.885-.555 2.01-.45.93.09 1.695.615t1.065 1.455q.165.51.225 1.29.075.78.06 1.32 0 .525-.045 1.41l-.03.9a.97.97 0 0 1-.315.69q-.3.285-.705.27a.97.97 0 0 1-.69-.315.94.94 0 0 1-.27-.705q0-.165.03-.99.045-.825.045-1.275.015-.45-.03-1.035-.045-.6-.165-.96a.86.86 0 0 0-.36-.465 1.3 1.3 0 0 0-.675-.225q-.42-.045-.78.105-.345.135-.51.39m12.697-1.425q-.09 2.805-.045 5.835 0 .435-.3.75a1 1 0 0 1-.735.3 1 1 0 0 1-.75-.285q-.3-.3-.315-.735-.045-3.18.045-5.955.015-.435.33-.72.33-.3.765-.285t.72.345q.3.315.285.75m-.39-3.6q.315.3.315.735t-.315.75a1 1 0 0 1-.735.3q-.435 0-.75-.3-.3-.315-.3-.75a1 1 0 0 1 .3-.735q.315-.315.75-.315t.735.315m6.616 5.16q-.195-.165-.345-.285-.15-.135-.225-.18l-.12-.12q-.165-.09-.6-.165-.18-.015-.465.03t-.48.165l-.09.06.03.06.015.015q.015.015.12.09.12.075.3.15.24.105.735.285t.63.225q.345.15.615.285.285.12.66.375t.6.54.36.735q.15.435.09.93-.075.51-.345.915-.255.39-.63.63-.375.225-.78.36-.39.135-.795.195-.78.105-1.62-.03-.84-.15-1.395-.555-.315-.24-.57-.675l-.12-.24a1 1 0 0 0-.075-.135q-.225-.33-.15-.705.09-.39.435-.6.345-.225.75-.135.42.075.645.405.09.135.18.3l.105.195q.045.06.06.105.18.12.6.195t.87 0q.795-.12.825-.45.03-.21-.165-.39-.195-.195-.9-.48-.105-.045-.66-.24-.555-.21-.795-.33-1.08-.48-1.425-1.17-.405-.81-.075-1.56.255-.63.945-.99.525-.27 1.14-.375.6-.12 1.095-.045.9.12 1.455.435a4 4 0 0 1 .27.225l.36.3q.195.165.255.225.315.255.345.66.03.39-.24.69-.27.285-.69.315-.405.03-.735-.24m9.014-2.925v-.495q.015-.285.015-.36.015-.435.33-.72.315-.3.75-.285.435 0 .72.315.3.315.3.75 0 .06-.015.33 0 .255-.015.45.63.03.9.33.285.3.285.72 0 .405-.3.705-.285.3-.93.33 0 .465-.015.885-.015 1.395.045 2.76h.015-.015q.015.03.06.075.06.03.165.09l.12.06.135.075q.075.03.12.06.285.135.465.27.36.24.45.66t-.15.78-.66.45-.78-.15q-.105-.06-.285-.15l-.42-.225q-.66-.36-1.005-.81a1.2 1.2 0 0 1-.225-.54q-.03-.15-.06-.36-.03-.285-.045-.84-.03-.855-.015-2.22 0-.45.015-.945-.72-.105-.93-.375-.195-.285-.195-.63t.21-.615q.225-.285.96-.375m7.333 2.985q.06 2.895.06 4.29 0 .435-.315.75a1 1 0 0 1-.735.3q-.435 0-.75-.3-.3-.315-.3-.75 0-1.395-.06-4.2t-.06-4.56a1 1 0 0 1 .3-.735q.315-.315.75-.315t.735.315q.315.3.315.735 0 1.275.015 2.175l.06-.03q1.17-.525 2.295-.3.675.135 1.2.57.54.435.78 1.17.12.39.15 1.2.03.585.015 1.53-.015.495-.09 2.505-.015.405-.33.69a.96.96 0 0 1-.705.255.97.97 0 0 1-.69-.315q-.27-.315-.255-.72l.09-2.445q.015-.9 0-1.425-.03-.525-.075-.645-.105-.345-.48-.42-.51-.105-1.095.15-.195.09-.825.525m11.655.48q-.015-.24-.21-.6-.18-.375-.81-.69-.735-.345-1.605.06-.825.39-.915 1.305l1.095.03q.57.015 1.395.015.825-.015 1.05-.12m1.5 3.315q-.06.225-.345.57-.3.285-.615.48t-1.005.345q-1.05.135-1.845.03-.78-.12-1.41-.495a4 4 0 0 1-1.095-1.005q-.465-.645-.75-1.86-.12-.705.03-1.305.66-3.18 3.78-3.24 2.865.015 3.585 3.105.165.645-.105 1.05-.33.51-1.155.57-.39.045-1.17.075-.765.015-2.925-.135.15 1.38 1.74 1.605.93.06 1.29-.285.57-.585.96-.6.39-.03.645.165.27.18.375.435.105.24.015.495m8.641-1.665q.3.555.675.81.375.24.735.24.225.075.78-.195.585-.3.78-.99t-.075-1.515q-.33-.735-.84-.975-.525-.24-1.02-.045t-1.035 1.02zm-.165-4.29q1.62-.9 3.09-.24 1.29.6 1.89 2.13.24.63.285 1.32.06.675-.105 1.41-.15.72-.63 1.365t-1.245 1.02q-1.29.645-2.31.345-.42-.12-.825-.39l-.03 2.445q-.015.435-.33.735a.95.95 0 0 1-.735.285.98.98 0 0 1-.735-.315 1 1 0 0 1-.3-.735q.045-2.595.045-8.82a1 1 0 0 1 .3-.735q.315-.315.75-.315.57 0 .885.495m8.849.27q.6-.33 1.8-.75.39-.135.75.045.375.165.51.555a.97.97 0 0 1-.045.765.9.9 0 0 1-.555.495q-1.38.48-2.355.945-.06.48-.015 1.365.015.945.03 2.67 0 .435-.315.75a.98.98 0 0 1-.735.315q-.42 0-.735-.315a.96.96 0 0 1-.315-.72q-.015-1.485-.015-2.34a1 1 0 0 1 0-.345q-.015-1.665-.015-3.015 0-.585.3-.885.315-.315.75-.315.315 0 .57.18.27.165.39.6m9.109 2.37q-.015-.24-.21-.6-.18-.375-.81-.69-.735-.345-1.605.06-.825.39-.915 1.305l1.095.03q.57.015 1.395.015.825-.015 1.05-.12m1.5 3.315q-.06.225-.345.57-.3.285-.615.48t-1.005.345q-1.05.135-1.845.03-.78-.12-1.41-.495a4 4 0 0 1-1.095-1.005q-.465-.645-.75-1.86-.12-.705.03-1.305.66-3.18 3.78-3.24 2.865.015 3.585 3.105.165.645-.105 1.05-.33.51-1.155.57-.39.045-1.17.075-.765.015-2.925-.135.15 1.38 1.74 1.605.93.06 1.29-.285.57-.585.96-.6.39-.03.645.165.27.18.375.435.105.24.015.495m6.245-6.99q-.165-.015-.735-.105-.33-.06-.48-.06-.135 0-.165.045-.015.09-.015.195-.015.12.015.57v.03l.75.015q.435.015.735.33t.285.75-.33.735-.75.285l-.555-.015q.075 2.37-.06 4.71-.03.42-.36.72a1.02 1.02 0 0 1-.765.255q-.42-.03-.72-.36a1.02 1.02 0 0 1-.255-.765q.135-2.28.075-4.635-.39-.06-.66-.36a1 1 0 0 1-.24-.705q.015-.345.225-.615a1 1 0 0 1 .525-.36 7 7 0 0 1 0-.675q.015-.615.21-.99.615-1.245 2.04-1.26.345 0 .87.09l.57.105q.435.045.705.39a1 1 0 0 1 .225.765.98.98 0 0 1-.39.69.98.98 0 0 1-.75.225m6.64 3.675q-.015-.24-.21-.6-.18-.375-.81-.69-.735-.345-1.605.06-.825.39-.915 1.305l1.095.03q.57.015 1.395.015.825-.015 1.05-.12m1.5 3.315q-.06.225-.345.57-.3.285-.615.48t-1.005.345q-1.05.135-1.845.03-.78-.12-1.41-.495a4 4 0 0 1-1.095-1.005q-.465-.645-.75-1.86-.12-.705.03-1.305.66-3.18 3.78-3.24 2.865.015 3.585 3.105.165.645-.105 1.05-.33.51-1.155.57-.39.045-1.17.075-.765.015-2.925-.135.15 1.38 1.74 1.605.93.06 1.29-.285.57-.585.96-.6.39-.03.645.165.27.18.375.435.105.24.015.495m4.024-5.685q.6-.33 1.8-.75.39-.135.75.045.375.165.51.555a.97.97 0 0 1-.045.765.9.9 0 0 1-.555.495q-1.38.48-2.355.945-.06.48-.015 1.365.015.945.03 2.67 0 .435-.315.75a.98.98 0 0 1-.735.315q-.42 0-.735-.315a.96.96 0 0 1-.315-.72q-.015-1.485-.015-2.34a1 1 0 0 1 0-.345q-.015-1.665-.015-3.015 0-.585.3-.885.315-.315.75-.315.315 0 .57.18.27.165.39.6m6.197 0q.6-.33 1.8-.75.39-.135.75.045.375.165.51.555a.97.97 0 0 1-.045.765.9.9 0 0 1-.555.495q-1.38.48-2.355.945-.06.48-.015 1.365.015.945.03 2.67 0 .435-.315.75a.98.98 0 0 1-.735.315q-.42 0-.735-.315a.96.96 0 0 1-.315-.72q-.015-1.485-.015-2.34a1 1 0 0 1 0-.345q-.015-1.665-.015-3.015 0-.585.3-.885.315-.315.75-.315.315 0 .57.18.27.165.39.6m9.109 2.37q-.015-.24-.21-.6-.18-.375-.81-.69-.735-.345-1.605.06-.825.39-.915 1.305l1.095.03q.57.015 1.395.015.825-.015 1.05-.12m1.5 3.315q-.06.225-.345.57-.3.285-.615.48t-1.005.345q-1.05.135-1.845.03-.78-.12-1.41-.495a4 4 0 0 1-1.095-1.005q-.465-.645-.75-1.86-.12-.705.03-1.305.66-3.18 3.78-3.24 2.865.015 3.585 3.105.165.645-.105 1.05-.33.51-1.155.57-.39.045-1.17.075-.765.015-2.925-.135.15 1.38 1.74 1.605.93.06 1.29-.285.57-.585.96-.6.39-.03.645.165.27.18.375.435.105.24.015.495m7.265-2.235q-.015-.705-.015-1.56-.015 0-.54-.375a.9.9 0 0 0-.255-.135q-.93-.3-1.545.12-.57.405-.765 1.245-.195.885.165 1.53t1.125.78q.465.09.705-.015t.585-.525a1 1 0 0 0 .135-.195l.135-.315q.09-.225.225-.48a.2.2 0 0 1 .045-.075m2.025-6.03q.075 7.365.075 8.625 0 .435-.315.75a1 1 0 0 1-.735.3q-.45 0-.765-.48-.285.225-.6.36-.81.33-1.875.15a4 4 0 0 1-1.365-.495q-.585-.375-.93-.87t-.57-1.095q-.21-.6-.21-1.2.015-.6.105-1.17.36-1.635 1.62-2.505 1.455-1.005 3.36-.42.06.03.135.06a72 72 0 0 0-.03-1.98 1 1 0 0 1 .3-.735q.3-.315.735-.315a.95.95 0 0 1 .735.285q.315.3.33.735m13.209 7.305q-.045.09-.09.195-.045.09-.09.21t-.09.195q-.24.57-.57.9-.51.525-1.215.735-.69.24-1.35.18t-1.275-.3a4.1 4.1 0 0 1-1.635-1.2 3.37 3.37 0 0 1-.765-1.89q-.06-.885.285-1.8a4.6 4.6 0 0 1 1.005-1.59q.465-.48 1.035-.765.585-.3 1.32-.375t1.485.255q.405.165.855.54.03.03.195.18l.27.225q.345.27.39.69a.95.95 0 0 1-.21.75q-.27.33-.705.39-.42.045-.765-.225-.03-.015-.57-.48-.18-.15-.27-.195-.81-.33-1.5.405-.36.375-.57.885-.195.51-.15.96.03.42.33.795t.795.57q.525.195.885.15.375-.06.6-.285.075-.075.18-.315l.33-.72q.195-.375.6-.495.42-.135.81.06.39.18.51.585.135.405-.06.78m3.208-2.835q.06 2.895.06 4.29 0 .435-.315.75a1 1 0 0 1-.735.3q-.435 0-.75-.3-.3-.315-.3-.75 0-1.395-.06-4.2t-.06-4.56a1 1 0 0 1 .3-.735q.315-.315.75-.315t.735.315q.315.3.315.735 0 1.275.015 2.175l.06-.03q1.17-.525 2.295-.3.675.135 1.2.57.54.435.78 1.17.12.39.15 1.2.03.585.015 1.53-.015.495-.09 2.505-.015.405-.33.69a.96.96 0 0 1-.705.255.97.97 0 0 1-.69-.315q-.27-.315-.255-.72l.09-2.445q.015-.9 0-1.425-.03-.525-.075-.645-.105-.345-.48-.42-.51-.105-1.095.15-.195.09-.825.525m9.105-.69q-.255.075-.27.075l-.15.06q-.42.345-.645.96-.21.615-.12 1.275.06.63.375 1.02.33.39.855.495.63.12.96 0 .285-.105.57-.57.285-.48.36-1.2.09-.735-.09-1.215-.165-.48-.42-.585-.195-.09-.36-.12a3 3 0 0 0-.465-.075q-.3-.045-.6-.12m.435-1.98q1.41.225 1.89.435.555.27.93.735.39.465.54.99.165.525.24 1.11.075.57-.015 1.035-.075.72-.33 1.38t-.78 1.26q-.51.6-1.215.84-.855.3-2.04.06-1.305-.255-2.04-1.17a4.1 4.1 0 0 1-.885-2.1 4.85 4.85 0 0 1 .24-2.19q.39-1.095 1.26-1.83.36-.27.885-.435.015 0 .315-.09a1 1 0 0 0 .18-.06 1 1 0 0 1 .825.03m7.131 1.05q-.09 2.805-.045 5.835 0 .435-.3.75a1 1 0 0 1-.735.3 1 1 0 0 1-.75-.285q-.3-.3-.315-.735-.045-3.18.045-5.955.015-.435.33-.72.33-.3.765-.285t.72.345q.3.315.285.75m-.39-3.6q.315.3.315.735t-.315.75a1 1 0 0 1-.735.3q-.435 0-.75-.3-.3-.315-.3-.75a1 1 0 0 1 .3-.735q.315-.315.75-.315t.735.315m9.046 8.055q-.045.09-.09.195-.045.09-.09.21t-.09.195q-.24.57-.57.9-.51.525-1.215.735-.69.24-1.35.18t-1.275-.3a4.1 4.1 0 0 1-1.635-1.2 3.37 3.37 0 0 1-.765-1.89q-.06-.885.285-1.8a4.6 4.6 0 0 1 1.005-1.59q.465-.48 1.035-.765.585-.3 1.32-.375t1.485.255q.405.165.855.54.03.03.195.18l.27.225q.345.27.39.69a.95.95 0 0 1-.21.75q-.27.33-.705.39-.42.045-.765-.225-.03-.015-.57-.48-.18-.15-.27-.195-.81-.33-1.5.405-.36.375-.57.885-.195.51-.15.96.03.42.33.795t.795.57q.525.195.885.15.375-.06.6-.285.075-.075.18-.315l.33-.72q.195-.375.6-.495.42-.135.81.06.39.18.51.585.135.405-.06.78m7.378-2.355q-.015-.24-.21-.6-.18-.375-.81-.69-.735-.345-1.605.06-.825.39-.915 1.305l1.095.03q.57.015 1.395.015.825-.015 1.05-.12m1.5 3.315q-.06.225-.345.57-.3.285-.615.48t-1.005.345q-1.05.135-1.845.03-.78-.12-1.41-.495a4 4 0 0 1-1.095-1.005q-.465-.645-.75-1.86-.12-.705.03-1.305.66-3.18 3.78-3.24 2.865.015 3.585 3.105.165.645-.105 1.05-.33.51-1.155.57-.39.045-1.17.075-.765.015-2.925-.135.15 1.38 1.74 1.605.93.06 1.29-.285.57-.585.96-.6.39-.03.645.165.27.18.375.435.105.24.015.495m7.667-6.78v-.495q.015-.285.015-.36.015-.435.33-.72.315-.3.75-.285.435 0 .72.315.3.315.3.75 0 .06-.015.33 0 .255-.015.45.63.03.9.33.285.3.285.72 0 .405-.3.705-.285.3-.93.33 0 .465-.015.885-.015 1.395.045 2.76h.015-.015q.015.03.06.075.06.03.165.09l.12.06.135.075q.075.03.12.06.285.135.465.27.36.24.45.66t-.15.78-.66.45-.78-.15q-.105-.06-.285-.15l-.42-.225q-.66-.36-1.005-.81a1.2 1.2 0 0 1-.225-.54q-.03-.15-.06-.36-.03-.285-.045-.84-.03-.855-.015-2.22 0-.45.015-.945-.72-.105-.93-.375-.195-.285-.195-.63t.21-.615q.225-.285.96-.375m7.333 2.985q.06 2.895.06 4.29 0 .435-.315.75a1 1 0 0 1-.735.3q-.435 0-.75-.3-.3-.315-.3-.75 0-1.395-.06-4.2t-.06-4.56a1 1 0 0 1 .3-.735q.315-.315.75-.315t.735.315q.315.3.315.735 0 1.275.015 2.175l.06-.03q1.17-.525 2.295-.3.675.135 1.2.57.54.435.78 1.17.12.39.15 1.2.03.585.015 1.53-.015.495-.09 2.505-.015.405-.33.69a.96.96 0 0 1-.705.255.97.97 0 0 1-.69-.315q-.27-.315-.255-.72l.09-2.445q.015-.9 0-1.425-.03-.525-.075-.645-.105-.345-.48-.42-.51-.105-1.095.15-.195.09-.825.525m11.654.48q-.015-.24-.21-.6-.18-.375-.81-.69-.735-.345-1.605.06-.825.39-.915 1.305l1.095.03q.57.015 1.395.015.825-.015 1.05-.12m1.5 3.315q-.06.225-.345.57-.3.285-.615.48t-1.005.345q-1.05.135-1.845.03-.78-.12-1.41-.495a4 4 0 0 1-1.095-1.005q-.465-.645-.75-1.86-.12-.705.03-1.305.66-3.18 3.78-3.24 2.865.015 3.585 3.105.165.645-.105 1.05-.33.51-1.155.57-.39.045-1.17.075-.765.015-2.925-.135.15 1.38 1.74 1.605.93.06 1.29-.285.57-.585.96-.6.39-.03.645.165.27.18.375.435.105.24.015.495m6.71-3.855q-.195-.165-.345-.285-.15-.135-.225-.18l-.12-.12q-.165-.09-.6-.165-.18-.015-.465.03t-.48.165l-.09.06.03.06.015.015q.015.015.12.09.12.075.3.15.24.105.735.285t.63.225q.345.15.615.285.285.12.66.375t.6.54.36.735q.15.435.09.93-.075.51-.345.915-.255.39-.63.63-.375.225-.78.36-.39.135-.795.195-.78.105-1.62-.03-.84-.15-1.395-.555-.315-.24-.57-.675l-.12-.24a1 1 0 0 0-.075-.135.9.9 0 0 1-.15-.705q.09-.39.435-.6.345-.225.75-.135.42.075.645.405.09.135.18.3l.105.195q.045.06.06.105.18.12.6.195t.87 0q.795-.12.825-.45.03-.21-.165-.39-.195-.195-.9-.48-.105-.045-.66-.24-.555-.21-.795-.33-1.08-.48-1.425-1.17-.405-.81-.075-1.56.255-.63.945-.99.525-.27 1.14-.375.6-.12 1.095-.045.9.12 1.455.435a4 4 0 0 1 .27.225l.36.3q.195.165.255.225.315.255.345.66.03.39-.24.69-.27.285-.69.315-.405.03-.735-.24m9.032.54q-.015-.24-.21-.6-.18-.375-.81-.69-.735-.345-1.605.06-.825.39-.915 1.305l1.095.03q.57.015 1.395.015.825-.015 1.05-.12m1.5 3.315q-.06.225-.345.57-.3.285-.615.48t-1.005.345q-1.05.135-1.845.03-.78-.12-1.41-.495a4 4 0 0 1-1.095-1.005q-.465-.645-.75-1.86-.12-.705.03-1.305.66-3.18 3.78-3.24 2.865.015 3.585 3.105.165.645-.105 1.05-.33.51-1.155.57-.39.045-1.17.075-.765.015-2.925-.135.15 1.38 1.74 1.605.93.06 1.29-.285.57-.585.96-.6.39-.03.645.165.27.18.375.435.105.24.015.495m-245.729 24.765q-.015-.705-.015-1.56-.015 0-.54-.375a.9.9 0 0 0-.255-.135q-.93-.3-1.545.12-.57.405-.765 1.245-.195.885.165 1.53t1.125.78q.465.09.705-.015t.585-.525a1 1 0 0 0 .135-.195l.135-.315q.09-.225.225-.48a.2.2 0 0 1 .045-.075m2.025-6.03q.075 7.365.075 8.625 0 .435-.315.75a1 1 0 0 1-.735.3q-.45 0-.765-.48-.285.225-.6.36-.81.33-1.875.15a4 4 0 0 1-1.365-.495q-.585-.375-.93-.87t-.57-1.095q-.21-.6-.21-1.2.015-.6.105-1.17.36-1.635 1.62-2.505 1.455-1.005 3.36-.42.06.03.135.06a72 72 0 0 0-.03-1.98 1 1 0 0 1 .3-.735q.3-.315.735-.315a.95.95 0 0 1 .735.285q.315.3.33.735m6.762 6.345q-.045-1.2-.12-2.07l-.15-.105-.21-.165-.135-.09q-.615-.18-1.245.225-.615.405-.975 1.305-.345.87-.195 1.41.15.525.675.705.66.24 1.35-.27.12-.075.21-.165l.24-.27.345-.36a.8.8 0 0 1 .21-.15m1.86-3.21q.06.51.105 1.035t.075 1.2l.045 1.05.045 1.17q.03.795.045 1.035.015.435-.285.765-.3.315-.72.33-.345.015-.63-.165-.27-.195-.39-.51-1.56 1.08-3.195.495-.855-.3-1.38-.885-.51-.6-.645-1.305a5.2 5.2 0 0 1-.045-1.425q.075-.735.345-1.365.285-.63.72-1.185t1.05-.99q.63-.435 1.365-.555.735-.135 1.59.075.345.09.675.315h.075q.435-.06.765.21.345.27.39.705m1.574 7.875q.225-.21.495-.45.285-.225.45-.39.18-.165.33-.36.285-.345.54-.75a.3.3 0 0 1-.06-.135l-2.115-5.73q-.15-.405.015-.795a1 1 0 0 1 .585-.555 1 1 0 0 1 .795.03q.405.165.555.57l1.455 4.065q.345-.915 1.17-3.99a.9.9 0 0 1 .465-.585q.36-.195.75-.075.405.105.6.465t.075.765q-.045.135-.24.96-.18.81-.255 1.035t-.27.84q-.18.615-.3.915l-.33.87q-.21.54-.39.9l-.42.81q-.24.465-.51.855-.27.405-.555.765-.195.255-.48.51l-.6.54q-.3.27-.375.36-.3.285-.72.27a.97.97 0 0 1-.69-.315.9.9 0 0 1-.27-.705q.015-.405.3-.69m12.419-6.6q-.195-.165-.345-.285-.15-.135-.225-.18l-.12-.12q-.165-.09-.6-.165-.18-.015-.465.03t-.48.165l-.09.06.03.06.015.015q.015.015.12.09.12.075.3.15.24.105.735.285t.63.225q.345.15.615.285.285.12.66.375t.6.54.36.735q.15.435.09.93-.075.51-.345.915-.255.39-.63.63-.375.225-.78.36-.39.135-.795.195-.78.105-1.62-.03-.84-.15-1.395-.555-.315-.24-.57-.675l-.12-.24a1 1 0 0 0-.075-.135q-.225-.33-.15-.705.09-.39.435-.6.345-.225.75-.135.42.075.645.405.09.135.18.3l.105.195q.045.06.06.105.18.12.6.195t.87 0q.795-.12.825-.45.03-.21-.165-.39-.195-.195-.9-.48-.105-.045-.66-.24-.555-.21-.795-.33-1.08-.48-1.425-1.17-.405-.81-.075-1.56.255-.63.945-.99.525-.27 1.14-.375.6-.12 1.095-.045.9.12 1.455.435a4 4 0 0 1 .27.225l.36.3q.195.165.255.225.315.255.345.66.03.39-.24.69-.27.285-.69.315-.405.03-.735-.24m12.089-3.135q-.165-.015-.735-.105-.33-.06-.48-.06-.135 0-.165.045-.015.09-.015.195-.015.12.015.57v.03l.75.015q.435.015.735.33t.285.75-.33.735-.75.285l-.555-.015q.075 2.37-.06 4.71-.03.42-.36.72a1.02 1.02 0 0 1-.765.255q-.42-.03-.72-.36a1.02 1.02 0 0 1-.255-.765q.135-2.28.075-4.635-.39-.06-.66-.36a1 1 0 0 1-.24-.705q.015-.345.225-.615a1 1 0 0 1 .525-.36 7 7 0 0 1 0-.675q.015-.615.21-.99.615-1.245 2.04-1.26.345 0 .87.09l.57.105q.435.045.705.39a1 1 0 0 1 .225.765.98.98 0 0 1-.39.69.98.98 0 0 1-.75.225m4.369 2.505q-.255.075-.27.075l-.15.06q-.42.345-.645.96-.21.615-.12 1.275.06.63.375 1.02.33.39.855.495.63.12.96 0 .285-.105.57-.57.285-.48.36-1.2.09-.735-.09-1.215-.165-.48-.42-.585-.195-.09-.36-.12a3 3 0 0 0-.465-.075q-.3-.045-.6-.12m.435-1.98q1.41.225 1.89.435.555.27.93.735.39.465.54.99.165.525.24 1.11.075.57-.015 1.035-.075.72-.33 1.38t-.78 1.26q-.51.6-1.215.84-.855.3-2.04.06-1.305-.255-2.04-1.17a4.1 4.1 0 0 1-.885-2.1 4.85 4.85 0 0 1 .24-2.19q.39-1.095 1.26-1.83.36-.27.885-.435.015 0 .315-.09a1 1 0 0 0 .18-.06 1 1 0 0 1 .825.03m6.965.78q.6-.33 1.8-.75.39-.135.75.045.375.165.51.555a.97.97 0 0 1-.045.765.9.9 0 0 1-.555.495q-1.38.48-2.355.945-.06.48-.015 1.365.015.945.03 2.67 0 .435-.315.75a.98.98 0 0 1-.735.315q-.42 0-.735-.315a.96.96 0 0 1-.315-.72q-.015-1.485-.015-2.34a1 1 0 0 1 0-.345q-.015-1.665-.015-3.015 0-.585.3-.885.315-.315.75-.315.315 0 .57.18.27.165.39.6m11.506 1.695q-.015.045-.045.165 0 .045-.015.09v.12a.3.3 0 0 0-.015.09v.045q0 .465.015 1.83t.015 2.07q0 .435-.315.75a1 1 0 0 1-.735.3q-.435 0-.75-.3-.3-.315-.3-.75 0-.63-.03-2.58-.015-1.95-.12-3.21-.015-.45.165-.66.18-.225.63-.27.78 0 .945.285.885-.555 2.01-.45.93.09 1.695.615t1.065 1.455q.165.51.225 1.29.075.78.06 1.32 0 .525-.045 1.41l-.03.9a.97.97 0 0 1-.315.69q-.3.285-.705.27a.97.97 0 0 1-.69-.315.94.94 0 0 1-.27-.705q0-.165.03-.99.045-.825.045-1.275.015-.45-.03-1.035-.045-.6-.165-.96a.86.86 0 0 0-.36-.465 1.3 1.3 0 0 0-.675-.225q-.42-.045-.78.105-.345.135-.51.39m11.2 2.07q-.045-1.2-.12-2.07l-.15-.105-.21-.165-.135-.09q-.615-.18-1.245.225-.615.405-.975 1.305-.345.87-.195 1.41.15.525.675.705.66.24 1.35-.27.12-.075.21-.165l.24-.27.345-.36a.8.8 0 0 1 .21-.15m1.86-3.21q.06.51.105 1.035t.075 1.2l.045 1.05.045 1.17q.03.795.045 1.035.015.435-.285.765-.3.315-.72.33-.345.015-.63-.165-.27-.195-.39-.51-1.56 1.08-3.195.495-.855-.3-1.38-.885-.51-.6-.645-1.305a5.2 5.2 0 0 1-.045-1.425q.075-.735.345-1.365.285-.63.72-1.185t1.05-.99q.63-.435 1.365-.555.735-.135 1.59.075.345.09.675.315h.075q.435-.06.765.21.345.27.39.705m2.148-1.65v-.495q.015-.285.015-.36.015-.435.33-.72.315-.3.75-.285.435 0 .72.315.3.315.3.75 0 .06-.015.33 0 .255-.015.45.63.03.9.33.285.3.285.72 0 .405-.3.705-.285.3-.93.33 0 .465-.015.885-.015 1.395.045 2.76h.015-.015q.015.03.06.075.06.03.165.09l.12.06.135.075q.075.03.12.06.285.135.465.27.36.24.45.66t-.15.78-.66.45-.78-.15q-.105-.06-.285-.15l-.42-.225q-.66-.36-1.005-.81a1.2 1.2 0 0 1-.225-.54q-.03-.15-.06-.36-.03-.285-.045-.84-.03-.855-.015-2.22 0-.45.015-.945-.72-.105-.93-.375-.195-.285-.195-.63t.21-.615q.225-.285.96-.375m7.362 1.365q-.09 2.805-.045 5.835 0 .435-.3.75a1 1 0 0 1-.735.3 1 1 0 0 1-.75-.285q-.3-.3-.315-.735-.045-3.18.045-5.955.015-.435.33-.72.33-.3.765-.285t.72.345q.3.315.285.75m-.39-3.6q.315.3.315.735t-.315.75a1 1 0 0 1-.735.3q-.435 0-.75-.3-.3-.315-.3-.75a1 1 0 0 1 .3-.735q.315-.315.75-.315t.735.315m8.204 4.08-.315.675-1.065 2.22-.24.525-.255.6q-.18.42-.24.57-.045.135-.24.63l-.24.585q-.165.375-.54.54-.36.15-.75 0a1 1 0 0 1-.585-.72.2.2 0 0 0-.015-.075q-.96-3.165-2.145-5.61a.984.984 0 0 1 .39-1.35q.36-.21.75-.09.39.105.585.48a41 41 0 0 1 1.515 3.57 46 46 0 0 1 1.725-3.615q.21-.345.6-.435.405-.09.75.135.345.21.435.6.105.39-.12.765m6.17 1.62q-.015-.24-.21-.6-.18-.375-.81-.69-.735-.345-1.605.06-.825.39-.915 1.305l1.095.03q.57.015 1.395.015.825-.015 1.05-.12m1.5 3.315q-.06.225-.345.57-.3.285-.615.48t-1.005.345q-1.05.135-1.845.03-.78-.12-1.41-.495a4 4 0 0 1-1.095-1.005q-.465-.645-.75-1.86-.12-.705.03-1.305.66-3.18 3.78-3.24 2.865.015 3.585 3.105.165.645-.105 1.05-.33.51-1.155.57-.39.045-1.17.075-.765.015-2.925-.135.15 1.38 1.74 1.605.93.06 1.29-.285.57-.585.96-.6.39-.03.645.165.27.18.375.435.105.24.015.495m11.686-1.92q-.045-1.2-.12-2.07l-.15-.105-.21-.165-.135-.09q-.615-.18-1.245.225-.615.405-.975 1.305-.345.87-.195 1.41.15.525.675.705.66.24 1.35-.27.12-.075.21-.165l.24-.27.345-.36a.8.8 0 0 1 .21-.15m1.86-3.21q.06.51.105 1.035t.075 1.2l.045 1.05.045 1.17q.03.795.045 1.035.015.435-.285.765-.3.315-.72.33-.345.015-.63-.165-.27-.195-.39-.51-1.56 1.08-3.195.495-.855-.3-1.38-.885-.51-.6-.645-1.305a5.2 5.2 0 0 1-.045-1.425q.075-.735.345-1.365.285-.63.72-1.185t1.05-.99q.63-.435 1.365-.555.735-.135 1.59.075.345.09.675.315h.075q.435-.06.765.21.345.27.39.705m4.137 1.14q-.015.045-.045.165 0 .045-.015.09v.12a.3.3 0 0 0-.015.09v.045q0 .465.015 1.83t.015 2.07q0 .435-.315.75a1 1 0 0 1-.735.3q-.435 0-.75-.3-.3-.315-.3-.75 0-.63-.03-2.58-.015-1.95-.12-3.21-.015-.45.165-.66.18-.225.63-.27.78 0 .945.285.885-.555 2.01-.45.93.09 1.695.615t1.065 1.455q.165.51.225 1.29.075.78.06 1.32 0 .525-.045 1.41l-.03.9a.97.97 0 0 1-.315.69q-.3.285-.705.27a.97.97 0 0 1-.69-.315.94.94 0 0 1-.27-.705q0-.165.03-.99.045-.825.045-1.275.015-.45-.03-1.035-.045-.6-.165-.96a.86.86 0 0 0-.36-.465 1.3 1.3 0 0 0-.675-.225q-.42-.045-.78.105-.345.135-.51.39m11.276 1.755q-.015-.705-.015-1.56-.015 0-.54-.375a.9.9 0 0 0-.255-.135q-.93-.3-1.545.12-.57.405-.765 1.245-.195.885.165 1.53t1.125.78q.465.09.705-.015t.585-.525a1 1 0 0 0 .135-.195l.135-.315q.09-.225.225-.48a.2.2 0 0 1 .045-.075m2.025-6.03q.075 7.365.075 8.625 0 .435-.315.75a1 1 0 0 1-.735.3q-.45 0-.765-.48-.285.225-.6.36-.81.33-1.875.15a4 4 0 0 1-1.365-.495q-.585-.375-.93-.87t-.57-1.095q-.21-.6-.21-1.2.015-.6.105-1.17.36-1.635 1.62-2.505 1.455-1.005 3.36-.42.06.03.135.06a72 72 0 0 0-.03-1.98 1 1 0 0 1 .3-.735q.3-.315.735-.315a.95.95 0 0 1 .735.285q.315.3.33.735m3.597 2.58q.6-.33 1.8-.75.39-.135.75.045.375.165.51.555a.97.97 0 0 1-.045.765.9.9 0 0 1-.555.495q-1.38.48-2.355.945-.06.48-.015 1.365.015.945.03 2.67 0 .435-.315.75a.98.98 0 0 1-.735.315q-.42 0-.735-.315a.96.96 0 0 1-.315-.72q-.015-1.485-.015-2.34a1 1 0 0 1 0-.345q-.015-1.665-.015-3.015 0-.585.3-.885.315-.315.75-.315.315 0 .57.18.27.165.39.6m6.852 1.2q-.255.075-.27.075l-.15.06q-.42.345-.645.96-.21.615-.12 1.275.06.63.375 1.02.33.39.855.495.63.12.96 0 .285-.105.57-.57.285-.48.36-1.2.09-.735-.09-1.215-.165-.48-.42-.585-.195-.09-.36-.12a3 3 0 0 0-.465-.075q-.3-.045-.6-.12m.435-1.98q1.41.225 1.89.435.555.27.93.735.39.465.54.99.165.525.24 1.11.075.57-.015 1.035-.075.72-.33 1.38t-.78 1.26q-.51.6-1.215.84-.855.3-2.04.06-1.305-.255-2.04-1.17a4.1 4.1 0 0 1-.885-2.1 4.85 4.85 0 0 1 .24-2.19q.39-1.095 1.26-1.83.36-.27.885-.435.015 0 .315-.09a1 1 0 0 0 .18-.06 1 1 0 0 1 .825.03m7.131 1.05q-.09 2.805-.045 5.835 0 .435-.3.75a1 1 0 0 1-.735.3 1 1 0 0 1-.75-.285q-.3-.3-.315-.735-.045-3.18.045-5.955.015-.435.33-.72.33-.3.765-.285t.72.345q.3.315.285.75m-.39-3.6q.315.3.315.735t-.315.75a1 1 0 0 1-.735.3q-.435 0-.75-.3-.3-.315-.3-.75a1 1 0 0 1 .3-.735q.315-.315.75-.315t.735.315m7.171 6.78q-.015-.705-.015-1.56-.015 0-.54-.375a.9.9 0 0 0-.255-.135q-.93-.3-1.545.12-.57.405-.765 1.245-.195.885.165 1.53t1.125.78q.465.09.705-.015t.585-.525a1 1 0 0 0 .135-.195l.135-.315q.09-.225.225-.48a.2.2 0 0 1 .045-.075m2.025-6.03q.075 7.365.075 8.625 0 .435-.315.75a1 1 0 0 1-.735.3q-.45 0-.765-.48-.285.225-.6.36-.81.33-1.875.15a4 4 0 0 1-1.365-.495q-.585-.375-.93-.87t-.57-1.095q-.21-.6-.21-1.2.015-.6.105-1.17.36-1.635 1.62-2.505 1.455-1.005 3.36-.42.06.03.135.06a72 72 0 0 0-.03-1.98 1 1 0 0 1 .3-.735q.3-.315.735-.315a.95.95 0 0 1 .735.285q.315.3.33.735m11.259 6.345q-.045-1.2-.12-2.07l-.15-.105-.21-.165-.135-.09q-.615-.18-1.245.225-.615.405-.975 1.305-.345.87-.195 1.41.15.525.675.705.66.24 1.35-.27.12-.075.21-.165l.24-.27.345-.36a.8.8 0 0 1 .21-.15m1.86-3.21q.06.51.105 1.035t.075 1.2l.045 1.05.045 1.17q.03.795.045 1.035.015.435-.285.765-.3.315-.72.33-.345.015-.63-.165-.27-.195-.39-.51-1.56 1.08-3.195.495-.855-.3-1.38-.885-.51-.6-.645-1.305a5.2 5.2 0 0 1-.045-1.425q.075-.735.345-1.365.285-.63.72-1.185t1.05-.99q.63-.435 1.365-.555.735-.135 1.59.075.345.09.675.315h.075q.435-.06.765.21.345.27.39.705m3.474 3.465q.3.555.675.81.375.24.735.24.225.075.78-.195.585-.3.78-.99t-.075-1.515q-.33-.735-.84-.975-.525-.24-1.02-.045t-1.035 1.02zm-.165-4.29q1.62-.9 3.09-.24 1.29.6 1.89 2.13.24.63.285 1.32.06.675-.105 1.41-.15.72-.63 1.365t-1.245 1.02q-1.29.645-2.31.345-.42-.12-.825-.39l-.03 2.445q-.015.435-.33.735a.95.95 0 0 1-.735.285.98.98 0 0 1-.735-.315 1 1 0 0 1-.3-.735q.045-2.595.045-8.82a1 1 0 0 1 .3-.735q.315-.315.75-.315.57 0 .885.495m8.969 4.29q.3.555.675.81.375.24.735.24.225.075.78-.195.585-.3.78-.99t-.075-1.515q-.33-.735-.84-.975-.525-.24-1.02-.045t-1.035 1.02zm-.165-4.29q1.62-.9 3.09-.24 1.29.6 1.89 2.13.24.63.285 1.32.06.675-.105 1.41-.15.72-.63 1.365t-1.245 1.02q-1.29.645-2.31.345-.42-.12-.825-.39l-.03 2.445q-.015.435-.33.735a.95.95 0 0 1-.735.285.98.98 0 0 1-.735-.315 1 1 0 0 1-.3-.735q.045-2.595.045-8.82a1 1 0 0 1 .3-.735q.315-.315.75-.315.57 0 .885.495m11.534 2.1q-.195-.165-.345-.285-.15-.135-.225-.18l-.12-.12q-.165-.09-.6-.165-.18-.015-.465.03t-.48.165l-.09.06.03.06.015.015q.015.015.12.09.12.075.3.15.24.105.735.285t.63.225q.345.15.615.285.285.12.66.375t.6.54.36.735q.15.435.09.93-.075.51-.345.915-.255.39-.63.63-.375.225-.78.36-.39.135-.795.195-.78.105-1.62-.03-.84-.15-1.395-.555-.315-.24-.57-.675l-.12-.24a1 1 0 0 0-.075-.135.9.9 0 0 1-.15-.705q.09-.39.435-.6.345-.225.75-.135.42.075.645.405.09.135.18.3l.105.195q.045.06.06.105.18.12.6.195t.87 0q.795-.12.825-.45.03-.21-.165-.39-.195-.195-.9-.48-.105-.045-.66-.24-.555-.21-.795-.33-1.08-.48-1.425-1.17-.405-.81-.075-1.56.255-.63.945-.99.525-.27 1.14-.375.6-.12 1.095-.045.9.12 1.455.435a4 4 0 0 1 .27.225l.36.3q.195.165.255.225.315.255.345.66.03.39-.24.69-.27.285-.69.315-.405.03-.735-.24m4.457 3.525q.315.3.315.735t-.315.75a1 1 0 0 1-.735.3q-.435 0-.75-.3-.3-.315-.3-.75a1 1 0 0 1 .3-.735q.315-.315.75-.315t.735.315"/></svg>