<svg xmlns="http://www.w3.org/2000/svg" width="283" height="283" fill="none"><path fill="#000" d="M0 39C0 17.46 17.46 0 39 0h205c21.539 0 39 17.46 39 39v205c0 21.539-17.461 39-39 39H39c-21.54 0-39-17.461-39-39z"/><path fill="#fff" d="M121.215 210.72q-2.8.84-8.96 1.68-5.88.84-12.32.84-6.16 0-11.2-.84-4.76-.84-8.12-3.36t-5.32-6.72q-1.68-4.48-1.68-11.48v-84q0-6.44 2.24-10.92 2.52-4.76 7-8.4 4.479-3.64 10.92-6.44 6.72-3.08 14.28-5.32a106 106 0 0 1 15.68-3.36 95.4 95.4 0 0 1 16.24-1.4q13.44 0 21.28 5.32 7.84 5.04 7.84 16.8 0 3.92-1.12 7.84-1.12 3.64-2.8 6.72-5.88 0-12.04.56t-12.04 1.68-11.2 2.52q-5.04 1.12-8.68 2.8zm45.172-22.4q0-11.76 7.28-19.6t19.88-7.84 19.88 7.84 7.28 19.6-7.28 19.6-19.88 7.84-19.88-7.84-7.28-19.6"/></svg>