<svg xmlns="http://www.w3.org/2000/svg" width="46" height="27" fill="none"><path fill="#000" stroke="#000" stroke-width=".2" d="M43.354.9c-1.17 0-2.117.947-2.117 2.117 0 .292.07.56.175.807l-8.004 11.192-.083.001-.055.001c-.4 0-.786.104-1.109.3l-6.863-3.416a2.12 2.12 0 0 0-2.113-1.926c-1.17 0-2.116.947-2.116 2.117q.002.142.024.273l-7.285 5.79a2.1 2.1 0 0 0-.707-.113 2.106 2.106 0 0 0-2.075 1.73l-6.765 2.731a2.08 2.08 0 0 0-1.244-.427 2.116 2.116 0 1 0 0 4.234 2.105 2.105 0 0 0 2.075-1.762l6.765-2.7c.349.26.775.428 1.244.428 1.17 0 2.117-.947 2.117-2.117a2 2 0 0 0-.024-.273l7.285-5.79c.222.078.46.113.706.113.4 0 .786-.105 1.11-.301l6.862 3.416a2.12 2.12 0 0 0 2.113 1.927c1.17 0 2.117-.947 2.117-2.117 0-.292-.07-.56-.175-.808l8.003-11.192h.084l.055-.001a2.116 2.116 0 1 0 0-4.234Z"/></svg>